# xmcd CD database file
#
# Track frame offsets:
#	150
#	4632
#	19425
#	39600
#	56887
#	77025
#	94462
#	116587
#	135712
#	157162
#	179662
#
# Disc length: 2628 seconds
#
# Revision: 1
# Processed by: cddbd v1.5.2PL0 Copyright (c) Steve Scherf et al.
# Submitted via: CDex 1.70beta2
#
DISCID=9b0a420b
DTITLE=Kannivalism - Nu Age.
DYEAR=2007
DGENRE=Rock
TTITLE0=Apple butter II
TTITLE1=Age.
TTITLE2=ドミノパーティ
TTITLE3=ホシの夜
TTITLE4=カスタリーンナ
TTITLE5=メランコリック
TTITLE6=Sugar rainy
TTITLE7=リトリ
TTITLE8=ぼくの場所
TTITLE9=幸せの絵本
TTITLE10=きみのミュージック
EXTD=YEAR: 2007
EXTT0=
EXTT1=
EXTT2=
EXTT3=
EXTT4=
EXTT5=
EXTT6=
EXTT7=
EXTT8=
EXTT9=
EXTT10=
PLAYORDER=
